<?xml version="1.0" standalone="no"?>
<!DOCTYPE svg PUBLIC "-//W3C//DTD SVG 20010904//EN"
 "http://www.w3.org/TR/2001/REC-SVG-20010904/DTD/svg10.dtd">
<svg version="1.0" xmlns="http://www.w3.org/2000/svg"
 width="1536.000000pt" height="1024.000000pt" viewBox="0 0 1536.000000 1024.000000"
 preserveAspectRatio="xMidYMid meet">

<g transform="translate(0.000000,1024.000000) scale(0.100000,-0.100000)"
fill="#000000" stroke="none">
<path d="M3170 5560 l0 -1400 4510 0 4510 0 0 1400 0 1400 -4510 0 -4510 0 0
-1400z m8810 0 l0 -1210 -4302 2 -4303 3 -3 1208 -2 1207 4305 0 4305 0 0
-1210z"/>
<path d="M4035 5629 l0 -751 375 5 c292 3 390 8 441 20 252 59 421 226 491
482 18 68 21 107 21 260 0 154 -3 192 -21 259 -48 173 -168 320 -324 395 -149
72 -214 81 -628 81 l-355 0 0 -751z m700 476 c191 -51 285 -204 285 -465 0
-237 -74 -387 -224 -456 -62 -28 -205 -46 -331 -42 l-90 3 -3 480 c-1 264 0
486 3 494 8 19 276 9 360 -14z"/>
<path d="M6590 5630 l0 -750 160 0 160 0 0 235 c0 129 3 235 8 235 4 0 49 -62
99 -138 51 -75 123 -181 160 -234 l67 -98 188 0 c103 0 188 1 188 3 0 2 -92
126 -204 277 l-204 274 57 75 c31 42 113 151 183 243 71 92 128 169 128 172 0
3 -79 6 -175 6 l-174 0 -103 -146 c-180 -255 -197 -279 -208 -282 -7 -3 -10
140 -10 437 l0 441 -160 0 -160 0 0 -750z"/>
<path d="M7719 6368 c0 -2 -2 -337 -3 -746 l-3 -742 166 2 166 3 0 740 0 740
-162 3 c-90 1 -163 1 -164 0z"/>
<path d="M9610 6194 c-69 -13 -131 -26 -137 -29 -10 -3 -13 -37 -13 -120 l0
-115 -75 0 -75 0 0 -120 0 -120 75 0 75 0 1 -142 c1 -79 1 -192 0 -253 -6
-290 63 -396 276 -426 89 -13 233 -2 308 23 l40 13 3 114 c2 105 1 113 -15
106 -10 -4 -50 -12 -90 -18 -62 -8 -79 -7 -118 7 -77 30 -80 41 -80 326 l0
245 148 3 147 3 0 119 0 120 -145 0 -145 0 0 145 0 145 -27 -1 c-16 -1 -84
-12 -153 -25z"/>
<path d="M5883 5950 c-131 -19 -232 -81 -310 -189 -60 -83 -88 -162 -103 -288
-30 -265 81 -484 287 -568 156 -63 444 -55 586 16 68 35 67 30 34 132 -16 50
-33 95 -36 100 -4 4 -32 -3 -62 -16 -196 -87 -402 -49 -465 86 -13 29 -24 62
-24 75 l0 22 324 0 323 0 7 46 c16 119 -4 261 -49 357 -83 175 -277 261 -512
227z m205 -237 c42 -31 64 -78 70 -148 l5 -65 -187 0 c-211 0 -199 -7 -170 89
18 61 73 127 118 141 49 15 133 6 164 -17z"/>
<path d="M10615 5950 c-99 -9 -228 -46 -318 -92 -51 -25 -57 -32 -51 -51 7
-26 74 -190 79 -195 2 -2 25 8 52 21 103 52 173 70 273 71 79 1 101 -2 130
-19 42 -25 66 -65 75 -127 l6 -48 -92 0 c-279 0 -481 -79 -551 -215 -29 -56
-35 -156 -14 -230 14 -45 29 -69 69 -110 61 -60 118 -84 222 -92 132 -10 231
22 334 108 l59 49 6 -31 c8 -42 66 -95 119 -110 58 -17 150 -17 225 0 l62 14
0 97 0 98 -38 -5 c-28 -4 -44 0 -62 15 l-25 20 0 259 c-1 267 -4 291 -46 375
-76 151 -257 221 -514 198z m245 -684 c0 -72 -1 -75 -38 -113 -54 -56 -105
-78 -179 -78 -74 0 -112 23 -131 80 -16 48 -3 90 38 130 39 37 105 54 218 54
l92 1 0 -74z"/>
<path d="M8495 5926 c-92 -24 -249 -91 -243 -105 2 -4 21 -53 42 -109 23 -59
44 -101 50 -98 212 98 372 120 458 63 40 -27 68 -79 68 -128 l0 -36 -127 -6
c-292 -14 -433 -72 -508 -208 -26 -48 -30 -64 -30 -139 0 -77 3 -90 31 -140
35 -62 105 -121 166 -139 62 -19 167 -24 233 -12 78 14 148 49 210 104 l50 44
25 -51 c36 -74 89 -99 207 -98 49 0 108 6 133 14 l45 14 3 97 3 97 -45 -2
c-26 -1 -51 3 -58 10 -10 10 -14 85 -18 285 -5 252 -8 276 -28 329 -44 110
-140 189 -268 222 -96 25 -286 21 -399 -8z m375 -663 l0 -77 -48 -46 c-112
-108 -283 -87 -298 37 -9 73 47 136 135 154 20 4 75 7 124 8 l87 1 0 -77z"/>
</g>
</svg>
